:SAMPLES-PER-SECOND 30
:FULLY-SPECIFIED
:DEGREES
446
root  29.3859 37.5936 6.76043 172.825 -74.0168 -179.123
RightUpLeg  -20.1686 -8.96629 1.21821
RightLeg  18.4958 1.43061 0.473729
RightFoot  6.28212 0.609232 -3.64821
RightToes  4.6566e-010 0 -3.6325e-017
Spine  5.2169 -2.33272 8.36937
Spine1  10.277 -2.26772 0.410112
HEad  -5.98934 -23.8565 0.0899191
LeftShoulder1  -0.245169 4.13987 -32.3507
LeftArm  -5.18474 17.533 -40.2137
LeftForeArm  23.8632 -11.9233 -6.64244
LeftHand  -0.0279298 4.95136 0.812642
RightShoulder  -0.967086 -6.17362 29.6584
RightArm  16.7304 11.0002 44.4855
RightForeArm  6.66293 9.64011 7.97473
RightHand  -0.416979 4.12343 -5.34142
LeftUpLeg  18.8529 -1.77453 -2.91814
LeftLeg  21.5417 -10.1566 -4.1293
LeftFoot  -19.2499 0.408796 4.26637
LeftToes  -4.59298e-010 2.08438e-011 -1.27151e-011
447
root  28.0692 37.5874 6.21638 168.779 -74.1539 -174.498
RightUpLeg  -20.0752 -9.24871 2.58762
RightLeg  22.1669 1.39289 0.370555
RightFoot  3.05606 0.524103 -3.98142
RightToes  4.6566e-010 0 -3.6325e-017
Spine  4.59904 -2.04547 11.029
Spine1  10.2519 -1.65539 0.229582
HEad  -5.57249 -23.8915 -0.157613
LeftShoulder1  -0.350955 4.40375 -32.8638
LeftArm  -5.90787 17.9456 -40.3267
LeftForeArm  23.3055 -12.2059 -6.30511
LeftHand  -0.0280995 3.98134 0.513375
RightShoulder  -0.898978 -5.99158 29.5434
RightArm  13.5898 11.0056 45.1651
RightForeArm  9.81944 5.11353 7.71167
RightHand  -0.344498 3.42453 -4.78472
LeftUpLeg  16.5531 0.0653487 0.318127
LeftLeg  29.1004 -12.7234 -7.3044
LeftFoot  -15.2871 0.129167 0.627245
LeftToes  -4.59298e-010 2.08438e-011 -1.27151e-011
448
root  26.9294 37.6261 5.65979 164.633 -75.8003 -169.717
RightUpLeg  -19.4951 -9.76343 3.41306
RightLeg  24.5419 0.11837 -0.169238
RightFoot  -0.0226682 0.421388 -4.24441
RightToes  4.6566e-010 0 -3.6325e-017
Spine  4.66962 -2.24891 12.1272
Spine1  9.52679 -1.7603 1.29997
HEad  -5.0022 -24.0724 0.0176988
LeftShoulder1  -0.287899 4.24725 -32.5989
LeftArm  -5.24489 18.6982 -40.9975
LeftForeArm  21.7539 -13.8149 -5.91753
LeftHand  -0.0258236 4.7195 0.0236553
RightShoulder  -0.956363 -6.12389 29.9318
RightArm  12.0478 10.2918 45.5654
RightForeArm  9.84318 2.58831 7.11041
RightHand  -0.392682 3.45049 -5.40107
LeftUpLeg  11.5895 1.15458 3.6979
LeftLeg  39.3789 -13.8873 -11.5248
LeftFoot  -7.22887 0.231984 -4.68947
LeftToes  -4.59298e-010 2.08438e-011 -1.27151e-011
449
root  25.8492 37.7105 5.15948 158.409 -77.9638 -163.136
RightUpLeg  -18.0633 -12.1728 4.11191
RightLeg  25.662 -0.0531527 -0.257931
RightFoot  -2.70529 0.300323 -4.21059
RightToes  4.6566e-010 0 -3.6325e-017
Spine  4.75275 -2.71039 13.1233
Spine1  9.2636 -2.13811 2.21412
HEad  -5.18327 -24.8047 0.7756
LeftShoulder1  -0.282889 4.23164 -32.6677
LeftArm  -2.67124 18.2341 -41.2591
LeftForeArm  20.2197 -15.8543 -5.67089
LeftHand  -0.0280809 5.24932 -0.378918
RightShoulder  -0.944634 -6.09895 29.8197
RightArm  10.715 8.85803 46.0818
RightForeArm  9.58107 2.65013 6.52868
RightHand  -0.343196 3.21344 -4.8679
LeftUpLeg  5.64384 0.493341 5.78564
LeftLeg  48.8981 -10.9324 -12.6769
LeftFoot  3.86609 1.22222 -9.32085
LeftToes  -4.59298e-010 2.08438e-011 -1.27151e-011
450
root  24.8261 37.8144 4.69257 151.129 -79.4522 -156.04
RightUpLeg  -15.7866 -13.9715 4.53709
RightLeg  26.0321 -0.316378 -0.247643
RightFoot  -5.10582 0.178467 -3.89767
RightToes  4.6566e-010 0 -3.6325e-017
Spine  4.43548 -2.79008 14.3921
Spine1  10.5966 -1.93285 2.25237
HEad  -6.46965 -26.0713 2.68288
LeftShoulder1  -0.119316 3.81606 -32.1508
LeftArm  -0.28808 17.0683 -42.3788
LeftForeArm  19.6464 -18.4252 -4.94235
LeftHand  -0.0232043 4.56694 -0.544584
RightShoulder  -1.00859 -6.2401 30.3033
RightArm  10.4999 7.76532 45.9835
RightForeArm  7.78661 4.60319 6.41697
RightHand  -0.336342 3.11475 -4.81922
LeftUpLeg  0.374472 0.224649 7.26558
LeftLeg  56.1261 -7.06405 -10.6753
LeftFoot  13.0924 2.27643 -10.9645
LeftToes  -4.59298e-010 2.08438e-011 -1.27151e-011
451
root  23.7751 38.0687 4.21969 149.528 -80.5944 -155.022
RightUpLeg  -12.4478 -14.5216 3.60652
RightLeg  25.0403 -0.905 -0.0342985
RightFoot  -6.87904 0.087766 -3.46106
RightToes  4.6566e-010 0 -3.6325e-017
Spine  4.89686 -2.73866 14.145
Spine1  10.9929 -1.66312 1.97989
HEad  -6.88962 -26.6847 3.30049
LeftShoulder1  -0.17425 3.96056 -32.061
LeftArm  1.69302 16.045 -42.9838
LeftForeArm  19.5395 -21.4679 -4.2
LeftHand  -0.0206293 3.36265 0.163337
RightShoulder  -0.972264 -6.14474 30.2473
RightArm  11.9684 7.21051 46.2322
RightForeArm  6.66215 6.6484 6.95633
RightHand  -0.417906 4.13541 -5.36914
LeftUpLeg  -3.82248 0.862586 7.35028
LeftLeg  61.0626 -4.03546 -7.36534
LeftFoot  10.5247 1.72893 -9.19153
LeftToes  -4.59298e-010 2.08438e-011 -1.27151e-011
452
root  22.6724 38.3497 3.77413 151.501 -81.5145 -157.395
RightUpLeg  -9.04783 -14.5083 2.226
RightLeg  23.5852 -1.49605 0.496697
RightFoot  -8.25755 0.0328727 -3.29021
RightToes  4.6566e-010 0 -3.6325e-017
Spine  4.99594 -2.67162 13.7098
Spine1  11.0568 -1.35943 1.06053
HEad  -6.72643 -26.6795 4.40783
LeftShoulder1  -0.229157 4.11035 -31.6463
LeftArm  1.14836 15.9684 -43.3723
LeftForeArm  20.5031 -24.7908 -4.16046
LeftHand  -0.0127946 3.2931 -0.279994
RightShoulder  -0.961208 -6.10164 30.4269
RightArm  15.3702 7.23927 46.453
RightForeArm  6.86014 8.78823 7.8725
RightHand  -0.444644 3.6824 -5.94015
LeftUpLeg  -7.75775 1.34839 6.39365
LeftLeg  63.3201 -2.73936 -5.34575
LeftFoot  7.2284 0.884172 -5.71933
LeftToes  -4.59298e-010 2.08438e-011 -1.27151e-011
453
root  21.5524 38.6002 3.37129 156.335 -81.9679 -162.444
RightUpLeg  -5.90881 -13.7329 0.86004
RightLeg  22.0414 -2.12715 0.971333
RightFoot  -9.39831 -0.0154024 -2.81671
RightToes  4.6566e-010 0 -3.6325e-017
Spine  4.70668 -2.31422 13.1318
Spine1  11.283 -0.926052 0.369978
HEad  -5.79059 -27.0002 3.67669
LeftShoulder1  -0.226294 4.09831 -31.9283
LeftArm  -0.36575 15.9006 -43.1894
LeftForeArm  21.4803 -27.6062 -4.78923
LeftHand  -0.00663609 2.41768 -0.268363
RightShoulder  -0.928142 -6.05343 29.8127
RightArm  19.2197 7.25631 47.2922
RightForeArm  7.24426 10.9113 8.16059
RightHand  -0.452885 3.75242 -6.00632
LeftUpLeg  -11.0737 1.94011 5.02324
LeftLeg  62.519 -2.1852 -3.96811
LeftFoot  5.46025 0.664481 -4.74571
LeftToes  -4.59298e-010 2.08438e-011 -1.27151e-011
